<mxfile host="app.diagrams.net" agent="Mozilla/5.0 (Windows NT 10.0; Win64; x64) AppleWebKit/537.36 (KHTML, like Gecko) Chrome/131.0.0.0 Safari/537.36" version="25.0.3">
  <diagram name="Page-1" id="9d5lDDtRlMQjuLlHklCn">
    <mxGraphModel dx="934" dy="1585" grid="1" gridSize="10" guides="1" tooltips="1" connect="1" arrows="1" fold="1" page="1" pageScale="1" pageWidth="850" pageHeight="1100" math="0" shadow="0">
      <root>
        <mxCell id="0" />
        <mxCell id="1" parent="0" />
        <mxCell id="FIB39aDfzD8x65Oi5Sua-5" style="edgeStyle=orthogonalEdgeStyle;rounded=0;orthogonalLoop=1;jettySize=auto;html=1;exitX=0.5;exitY=1;exitDx=0;exitDy=0;entryX=0.5;entryY=0;entryDx=0;entryDy=0;" edge="1" parent="1" source="FIB39aDfzD8x65Oi5Sua-1" target="FIB39aDfzD8x65Oi5Sua-2">
          <mxGeometry relative="1" as="geometry" />
        </mxCell>
        <mxCell id="FIB39aDfzD8x65Oi5Sua-1" value="API Spec with Insomnia" style="ellipse;whiteSpace=wrap;html=1;fillColor=#d5e8d4;strokeColor=#82b366;" vertex="1" parent="1">
          <mxGeometry x="30" y="13" width="120" height="80" as="geometry" />
        </mxCell>
        <mxCell id="FIB39aDfzD8x65Oi5Sua-6" style="edgeStyle=orthogonalEdgeStyle;rounded=0;orthogonalLoop=1;jettySize=auto;html=1;exitX=0.5;exitY=1;exitDx=0;exitDy=0;entryX=0.5;entryY=0;entryDx=0;entryDy=0;" edge="1" parent="1" source="FIB39aDfzD8x65Oi5Sua-2" target="FIB39aDfzD8x65Oi5Sua-3">
          <mxGeometry relative="1" as="geometry" />
        </mxCell>
        <mxCell id="FIB39aDfzD8x65Oi5Sua-2" value="Configure KONG API using Kong Manager in dev env" style="rounded=0;whiteSpace=wrap;html=1;fillColor=#dae8fc;strokeColor=#6c8ebf;" vertex="1" parent="1">
          <mxGeometry x="30" y="150" width="120" height="60" as="geometry" />
        </mxCell>
        <mxCell id="FIB39aDfzD8x65Oi5Sua-7" style="edgeStyle=orthogonalEdgeStyle;rounded=0;orthogonalLoop=1;jettySize=auto;html=1;exitX=0.5;exitY=1;exitDx=0;exitDy=0;entryX=0.5;entryY=0;entryDx=0;entryDy=0;" edge="1" parent="1" source="FIB39aDfzD8x65Oi5Sua-3" target="FIB39aDfzD8x65Oi5Sua-4">
          <mxGeometry relative="1" as="geometry" />
        </mxCell>
        <mxCell id="FIB39aDfzD8x65Oi5Sua-3" value="Unit Testing using Insomnia" style="rounded=0;whiteSpace=wrap;html=1;fillColor=#dae8fc;strokeColor=#6c8ebf;" vertex="1" parent="1">
          <mxGeometry x="30" y="250" width="120" height="60" as="geometry" />
        </mxCell>
        <mxCell id="FIB39aDfzD8x65Oi5Sua-16" style="edgeStyle=orthogonalEdgeStyle;rounded=0;orthogonalLoop=1;jettySize=auto;html=1;exitX=1;exitY=0.5;exitDx=0;exitDy=0;" edge="1" parent="1" source="FIB39aDfzD8x65Oi5Sua-4" target="FIB39aDfzD8x65Oi5Sua-11">
          <mxGeometry relative="1" as="geometry" />
        </mxCell>
        <mxCell id="FIB39aDfzD8x65Oi5Sua-65" style="edgeStyle=orthogonalEdgeStyle;rounded=0;orthogonalLoop=1;jettySize=auto;html=1;exitX=0;exitY=0.5;exitDx=0;exitDy=0;" edge="1" parent="1" source="FIB39aDfzD8x65Oi5Sua-4">
          <mxGeometry relative="1" as="geometry">
            <mxPoint x="85" y="110" as="targetPoint" />
            <Array as="points">
              <mxPoint x="10" y="385" />
              <mxPoint x="10" y="110" />
            </Array>
          </mxGeometry>
        </mxCell>
        <mxCell id="FIB39aDfzD8x65Oi5Sua-4" value="If Unit Test pass" style="rhombus;whiteSpace=wrap;html=1;fillColor=#e1d5e7;strokeColor=#9673a6;" vertex="1" parent="1">
          <mxGeometry x="30" y="340" width="110" height="90" as="geometry" />
        </mxCell>
        <mxCell id="FIB39aDfzD8x65Oi5Sua-18" style="edgeStyle=orthogonalEdgeStyle;rounded=0;orthogonalLoop=1;jettySize=auto;html=1;exitX=0.5;exitY=0;exitDx=0;exitDy=0;entryX=0.5;entryY=1;entryDx=0;entryDy=0;" edge="1" parent="1" source="FIB39aDfzD8x65Oi5Sua-11" target="FIB39aDfzD8x65Oi5Sua-12">
          <mxGeometry relative="1" as="geometry" />
        </mxCell>
        <mxCell id="FIB39aDfzD8x65Oi5Sua-59" style="edgeStyle=orthogonalEdgeStyle;rounded=0;orthogonalLoop=1;jettySize=auto;html=1;exitX=1;exitY=0.5;exitDx=0;exitDy=0;entryX=0;entryY=0.5;entryDx=0;entryDy=0;" edge="1" parent="1" source="FIB39aDfzD8x65Oi5Sua-11" target="FIB39aDfzD8x65Oi5Sua-32">
          <mxGeometry relative="1" as="geometry" />
        </mxCell>
        <mxCell id="FIB39aDfzD8x65Oi5Sua-11" value="Update QA deck file wth QA environment variables" style="rounded=0;whiteSpace=wrap;html=1;fillColor=#dae8fc;strokeColor=#6c8ebf;" vertex="1" parent="1">
          <mxGeometry x="250" y="352.5" width="130" height="65" as="geometry" />
        </mxCell>
        <mxCell id="FIB39aDfzD8x65Oi5Sua-12" value="Push Kong Configuration to Gitlab repo for QAdeployment using tags" style="rounded=0;whiteSpace=wrap;html=1;fillColor=#dae8fc;strokeColor=#6c8ebf;" vertex="1" parent="1">
          <mxGeometry x="250" y="247.5" width="130" height="65" as="geometry" />
        </mxCell>
        <mxCell id="FIB39aDfzD8x65Oi5Sua-25" style="edgeStyle=orthogonalEdgeStyle;rounded=0;orthogonalLoop=1;jettySize=auto;html=1;exitX=1;exitY=0.5;exitDx=0;exitDy=0;entryX=0;entryY=0.5;entryDx=0;entryDy=0;" edge="1" parent="1" source="FIB39aDfzD8x65Oi5Sua-13" target="FIB39aDfzD8x65Oi5Sua-24">
          <mxGeometry relative="1" as="geometry" />
        </mxCell>
        <mxCell id="FIB39aDfzD8x65Oi5Sua-29" style="edgeStyle=orthogonalEdgeStyle;rounded=0;orthogonalLoop=1;jettySize=auto;html=1;exitX=0;exitY=0.5;exitDx=0;exitDy=0;entryX=0.75;entryY=1.067;entryDx=0;entryDy=0;entryPerimeter=0;" edge="1" parent="1" source="FIB39aDfzD8x65Oi5Sua-13" target="FIB39aDfzD8x65Oi5Sua-17">
          <mxGeometry relative="1" as="geometry">
            <mxPoint x="210" y="400" as="targetPoint" />
          </mxGeometry>
        </mxCell>
        <mxCell id="FIB39aDfzD8x65Oi5Sua-13" value="decK file Validate" style="rhombus;whiteSpace=wrap;html=1;fillColor=#e1d5e7;strokeColor=#9673a6;" vertex="1" parent="1">
          <mxGeometry x="255" y="20" width="120" height="90" as="geometry" />
        </mxCell>
        <mxCell id="FIB39aDfzD8x65Oi5Sua-20" style="edgeStyle=orthogonalEdgeStyle;rounded=0;orthogonalLoop=1;jettySize=auto;html=1;exitX=0.5;exitY=0;exitDx=0;exitDy=0;entryX=0.5;entryY=1;entryDx=0;entryDy=0;" edge="1" parent="1" source="FIB39aDfzD8x65Oi5Sua-14" target="FIB39aDfzD8x65Oi5Sua-13">
          <mxGeometry relative="1" as="geometry" />
        </mxCell>
        <mxCell id="FIB39aDfzD8x65Oi5Sua-14" value="Execute Gitlab pipeline after PR approval" style="rounded=0;whiteSpace=wrap;html=1;fillColor=#dae8fc;strokeColor=#6c8ebf;" vertex="1" parent="1">
          <mxGeometry x="255" y="150" width="120" height="60" as="geometry" />
        </mxCell>
        <mxCell id="FIB39aDfzD8x65Oi5Sua-17" value="Yes" style="text;html=1;align=center;verticalAlign=middle;resizable=0;points=[];autosize=1;strokeColor=none;fillColor=none;" vertex="1" parent="1">
          <mxGeometry x="150" y="358" width="40" height="30" as="geometry" />
        </mxCell>
        <mxCell id="FIB39aDfzD8x65Oi5Sua-19" style="edgeStyle=orthogonalEdgeStyle;rounded=0;orthogonalLoop=1;jettySize=auto;html=1;exitX=0.5;exitY=0;exitDx=0;exitDy=0;entryX=0.565;entryY=0.972;entryDx=0;entryDy=0;entryPerimeter=0;" edge="1" parent="1" source="FIB39aDfzD8x65Oi5Sua-12" target="FIB39aDfzD8x65Oi5Sua-14">
          <mxGeometry relative="1" as="geometry" />
        </mxCell>
        <mxCell id="FIB39aDfzD8x65Oi5Sua-27" style="edgeStyle=orthogonalEdgeStyle;rounded=0;orthogonalLoop=1;jettySize=auto;html=1;exitX=0.5;exitY=0;exitDx=0;exitDy=0;" edge="1" parent="1" source="FIB39aDfzD8x65Oi5Sua-24">
          <mxGeometry relative="1" as="geometry">
            <mxPoint x="190" y="390" as="targetPoint" />
          </mxGeometry>
        </mxCell>
        <mxCell id="FIB39aDfzD8x65Oi5Sua-24" value="decK gateway diff" style="rhombus;whiteSpace=wrap;html=1;fillColor=#e1d5e7;strokeColor=#9673a6;" vertex="1" parent="1">
          <mxGeometry x="440" y="20" width="120" height="90" as="geometry" />
        </mxCell>
        <mxCell id="FIB39aDfzD8x65Oi5Sua-26" value="Yes" style="text;html=1;align=center;verticalAlign=middle;resizable=0;points=[];autosize=1;strokeColor=none;fillColor=none;" vertex="1" parent="1">
          <mxGeometry x="380" y="38" width="40" height="30" as="geometry" />
        </mxCell>
        <mxCell id="FIB39aDfzD8x65Oi5Sua-28" value="No" style="text;html=1;align=center;verticalAlign=middle;resizable=0;points=[];autosize=1;strokeColor=none;fillColor=none;" vertex="1" parent="1">
          <mxGeometry x="420" width="40" height="30" as="geometry" />
        </mxCell>
        <mxCell id="FIB39aDfzD8x65Oi5Sua-30" value="No" style="text;html=1;align=center;verticalAlign=middle;resizable=0;points=[];autosize=1;strokeColor=none;fillColor=none;" vertex="1" parent="1">
          <mxGeometry x="210" y="68" width="40" height="30" as="geometry" />
        </mxCell>
        <mxCell id="FIB39aDfzD8x65Oi5Sua-38" style="edgeStyle=orthogonalEdgeStyle;rounded=0;orthogonalLoop=1;jettySize=auto;html=1;entryX=0.5;entryY=0;entryDx=0;entryDy=0;" edge="1" parent="1" source="FIB39aDfzD8x65Oi5Sua-31" target="FIB39aDfzD8x65Oi5Sua-33">
          <mxGeometry relative="1" as="geometry" />
        </mxCell>
        <mxCell id="FIB39aDfzD8x65Oi5Sua-31" value="take QA current configuration backup to artifactory" style="rounded=0;whiteSpace=wrap;html=1;fillColor=#dae8fc;strokeColor=#6c8ebf;" vertex="1" parent="1">
          <mxGeometry x="450" y="150" width="120" height="55" as="geometry" />
        </mxCell>
        <mxCell id="FIB39aDfzD8x65Oi5Sua-40" style="edgeStyle=orthogonalEdgeStyle;rounded=0;orthogonalLoop=1;jettySize=auto;html=1;entryX=0;entryY=0.5;entryDx=0;entryDy=0;" edge="1" parent="1" source="FIB39aDfzD8x65Oi5Sua-32" target="FIB39aDfzD8x65Oi5Sua-39">
          <mxGeometry relative="1" as="geometry" />
        </mxCell>
        <mxCell id="FIB39aDfzD8x65Oi5Sua-32" value="run test with inso test&amp;nbsp;" style="rounded=0;whiteSpace=wrap;html=1;fillColor=#dae8fc;strokeColor=#6c8ebf;" vertex="1" parent="1">
          <mxGeometry x="450" y="355" width="120" height="60" as="geometry" />
        </mxCell>
        <mxCell id="FIB39aDfzD8x65Oi5Sua-37" style="edgeStyle=orthogonalEdgeStyle;rounded=0;orthogonalLoop=1;jettySize=auto;html=1;exitX=0.5;exitY=1;exitDx=0;exitDy=0;entryX=0.5;entryY=0;entryDx=0;entryDy=0;" edge="1" parent="1" source="FIB39aDfzD8x65Oi5Sua-33" target="FIB39aDfzD8x65Oi5Sua-32">
          <mxGeometry relative="1" as="geometry" />
        </mxCell>
        <mxCell id="FIB39aDfzD8x65Oi5Sua-33" value="decK sync with tags to deploy to Kong Gateway" style="rounded=0;whiteSpace=wrap;html=1;fillColor=#dae8fc;strokeColor=#6c8ebf;" vertex="1" parent="1">
          <mxGeometry x="450" y="247.5" width="120" height="60" as="geometry" />
        </mxCell>
        <mxCell id="FIB39aDfzD8x65Oi5Sua-34" style="edgeStyle=orthogonalEdgeStyle;rounded=0;orthogonalLoop=1;jettySize=auto;html=1;exitX=0.5;exitY=1;exitDx=0;exitDy=0;entryX=0.414;entryY=0.011;entryDx=0;entryDy=0;entryPerimeter=0;" edge="1" parent="1" source="FIB39aDfzD8x65Oi5Sua-24" target="FIB39aDfzD8x65Oi5Sua-31">
          <mxGeometry relative="1" as="geometry" />
        </mxCell>
        <mxCell id="FIB39aDfzD8x65Oi5Sua-35" value="Yes" style="text;html=1;align=center;verticalAlign=middle;resizable=0;points=[];autosize=1;strokeColor=none;fillColor=none;" vertex="1" parent="1">
          <mxGeometry x="500" y="108" width="40" height="30" as="geometry" />
        </mxCell>
        <mxCell id="FIB39aDfzD8x65Oi5Sua-43" style="edgeStyle=orthogonalEdgeStyle;rounded=0;orthogonalLoop=1;jettySize=auto;html=1;exitX=0.5;exitY=0;exitDx=0;exitDy=0;entryX=0.5;entryY=1;entryDx=0;entryDy=0;" edge="1" parent="1" source="FIB39aDfzD8x65Oi5Sua-39" target="FIB39aDfzD8x65Oi5Sua-41">
          <mxGeometry relative="1" as="geometry" />
        </mxCell>
        <mxCell id="FIB39aDfzD8x65Oi5Sua-61" style="edgeStyle=orthogonalEdgeStyle;rounded=0;orthogonalLoop=1;jettySize=auto;html=1;entryX=0.5;entryY=1;entryDx=0;entryDy=0;" edge="1" parent="1" source="FIB39aDfzD8x65Oi5Sua-39" target="FIB39aDfzD8x65Oi5Sua-11">
          <mxGeometry relative="1" as="geometry">
            <Array as="points">
              <mxPoint x="720" y="460" />
              <mxPoint x="315" y="460" />
            </Array>
          </mxGeometry>
        </mxCell>
        <mxCell id="FIB39aDfzD8x65Oi5Sua-39" value="Test Pass" style="rhombus;whiteSpace=wrap;html=1;fillColor=#e1d5e7;strokeColor=#9673a6;" vertex="1" parent="1">
          <mxGeometry x="670" y="341.5" width="100" height="87" as="geometry" />
        </mxCell>
        <mxCell id="FIB39aDfzD8x65Oi5Sua-41" value="Repeat Step&amp;nbsp; 5 to&amp;nbsp; 13 for production deployment" style="rounded=0;whiteSpace=wrap;html=1;fillColor=#dae8fc;strokeColor=#6c8ebf;" vertex="1" parent="1">
          <mxGeometry x="660" y="247.5" width="120" height="60" as="geometry" />
        </mxCell>
        <mxCell id="FIB39aDfzD8x65Oi5Sua-44" value="1" style="text;html=1;align=center;verticalAlign=middle;resizable=0;points=[];autosize=1;strokeColor=none;fillColor=none;" vertex="1" parent="1">
          <mxGeometry x="45" y="88" width="30" height="30" as="geometry" />
        </mxCell>
        <mxCell id="FIB39aDfzD8x65Oi5Sua-45" value="2" style="text;html=1;align=center;verticalAlign=middle;resizable=0;points=[];autosize=1;strokeColor=none;fillColor=none;" vertex="1" parent="1">
          <mxGeometry x="45" y="205" width="30" height="30" as="geometry" />
        </mxCell>
        <mxCell id="FIB39aDfzD8x65Oi5Sua-46" value="3" style="text;html=1;align=center;verticalAlign=middle;resizable=0;points=[];autosize=1;strokeColor=none;fillColor=none;" vertex="1" parent="1">
          <mxGeometry x="45" y="307.5" width="30" height="30" as="geometry" />
        </mxCell>
        <mxCell id="FIB39aDfzD8x65Oi5Sua-47" value="4" style="text;html=1;align=center;verticalAlign=middle;resizable=0;points=[];autosize=1;strokeColor=none;fillColor=none;" vertex="1" parent="1">
          <mxGeometry x="35" y="398" width="30" height="30" as="geometry" />
        </mxCell>
        <mxCell id="FIB39aDfzD8x65Oi5Sua-48" value="5" style="text;html=1;align=center;verticalAlign=middle;resizable=0;points=[];autosize=1;strokeColor=none;fillColor=none;" vertex="1" parent="1">
          <mxGeometry x="275" y="416.5" width="30" height="30" as="geometry" />
        </mxCell>
        <mxCell id="FIB39aDfzD8x65Oi5Sua-49" value="6" style="text;html=1;align=center;verticalAlign=middle;resizable=0;points=[];autosize=1;strokeColor=none;fillColor=none;" vertex="1" parent="1">
          <mxGeometry x="255" y="308" width="30" height="30" as="geometry" />
        </mxCell>
        <mxCell id="FIB39aDfzD8x65Oi5Sua-50" value="7" style="text;html=1;align=center;verticalAlign=middle;resizable=0;points=[];autosize=1;strokeColor=none;fillColor=none;" vertex="1" parent="1">
          <mxGeometry x="270" y="205" width="30" height="30" as="geometry" />
        </mxCell>
        <mxCell id="FIB39aDfzD8x65Oi5Sua-51" value="8" style="text;html=1;align=center;verticalAlign=middle;resizable=0;points=[];autosize=1;strokeColor=none;fillColor=none;" vertex="1" parent="1">
          <mxGeometry x="255" y="78" width="30" height="30" as="geometry" />
        </mxCell>
        <mxCell id="FIB39aDfzD8x65Oi5Sua-52" value="9" style="text;html=1;align=center;verticalAlign=middle;resizable=0;points=[];autosize=1;strokeColor=none;fillColor=none;" vertex="1" parent="1">
          <mxGeometry x="435" y="68" width="30" height="30" as="geometry" />
        </mxCell>
        <mxCell id="FIB39aDfzD8x65Oi5Sua-53" value="10" style="text;html=1;align=center;verticalAlign=middle;resizable=0;points=[];autosize=1;strokeColor=none;fillColor=none;" vertex="1" parent="1">
          <mxGeometry x="460" y="198" width="40" height="30" as="geometry" />
        </mxCell>
        <mxCell id="FIB39aDfzD8x65Oi5Sua-54" value="11" style="text;html=1;align=center;verticalAlign=middle;resizable=0;points=[];autosize=1;strokeColor=none;fillColor=none;" vertex="1" parent="1">
          <mxGeometry x="460" y="308" width="40" height="30" as="geometry" />
        </mxCell>
        <mxCell id="FIB39aDfzD8x65Oi5Sua-56" value="12" style="text;html=1;align=center;verticalAlign=middle;resizable=0;points=[];autosize=1;strokeColor=none;fillColor=none;" vertex="1" parent="1">
          <mxGeometry x="480" y="410" width="40" height="30" as="geometry" />
        </mxCell>
        <mxCell id="FIB39aDfzD8x65Oi5Sua-57" value="13" style="text;html=1;align=center;verticalAlign=middle;resizable=0;points=[];autosize=1;strokeColor=none;fillColor=none;" vertex="1" parent="1">
          <mxGeometry x="670" y="398" width="40" height="30" as="geometry" />
        </mxCell>
        <mxCell id="FIB39aDfzD8x65Oi5Sua-58" value="14" style="text;html=1;align=center;verticalAlign=middle;resizable=0;points=[];autosize=1;strokeColor=none;fillColor=none;" vertex="1" parent="1">
          <mxGeometry x="660" y="308" width="40" height="30" as="geometry" />
        </mxCell>
        <mxCell id="FIB39aDfzD8x65Oi5Sua-62" value="No" style="text;html=1;align=center;verticalAlign=middle;resizable=0;points=[];autosize=1;strokeColor=none;fillColor=none;" vertex="1" parent="1">
          <mxGeometry x="650" y="428" width="40" height="30" as="geometry" />
        </mxCell>
        <mxCell id="FIB39aDfzD8x65Oi5Sua-63" value="Yes" style="text;html=1;align=center;verticalAlign=middle;resizable=0;points=[];autosize=1;strokeColor=none;fillColor=none;" vertex="1" parent="1">
          <mxGeometry x="710" y="322.5" width="40" height="30" as="geometry" />
        </mxCell>
        <mxCell id="FIB39aDfzD8x65Oi5Sua-66" value="No" style="text;html=1;align=center;verticalAlign=middle;resizable=0;points=[];autosize=1;strokeColor=none;fillColor=none;" vertex="1" parent="1">
          <mxGeometry y="348" width="40" height="30" as="geometry" />
        </mxCell>
      </root>
    </mxGraphModel>
  </diagram>
</mxfile>
